# File generated by ImageToStl.com - Free Image and 3D model conversion tools

mtllib dial.mtl

o obj1
v -67.72000122 77.51648712 61.96527863
v -61.22000122 77.51648712 73.22360992
v -61.22000122 78.51647949 73.22360992
v -67.72000122 78.51647949 61.96527863
v -61.22000122 77.51648712 64.33108521
v -61.22000122 78.51647949 64.33108521
v -54.72000122 77.51648712 61.96527863
v -54.72000122 78.51647949 61.96527863
vn -0.86603 0 0.5
vn 0.34202 0 -0.93969
vn -0.34202 0 -0.93969
vn 0.86603 0 0.5
vn 0 1 0
vn 0 -1 0
usemtl mat2
f 1//1 3//1 4//1
f 5//2 1//2 4//2
f 5//2 4//2 6//2
f 7//3 5//3 6//3
f 7//3 6//3 8//3
f 2//4 7//4 8//4
f 2//4 8//4 3//4
f 8//5 6//5 3//5
f 3//5 6//5 4//5
f 7//6 2//6 5//6
f 5//6 2//6 1//6
usemtl mat1
f 1//1 2//1 3//1
# Vertices: 8, normals: 6, texture coordinates: 0, faces: 12

