# File generated by ImageToStl.com - Free Image and 3D model conversion tools

mtllib ratchet_spring.mtl

o obj1
v 40.04187012 57.31648254 -23.72480202
v 5.31763077 57.31648254 -31.10566711
v 5.81661892 57.31648254 -33.45322037
v 40.54085541 57.31648254 -26.07235718
v 5.31763077 62.31648254 -31.10566711
v 40.04187012 62.31648254 -23.72480202
v 40.54085541 62.31648254 -26.07235718
v 5.81661892 62.31648254 -33.45322037
vn 0 -1 0
vn 0 1 0
vn 0.97815 -0 0.20791
vn 0.20791 0 -0.97815
vn -0.97815 0 -0.20791
vn -0.20791 0 0.97815
usemtl mat2
f 1//1 3//1 4//1
f 5//2 6//2 7//2
f 5//2 7//2 8//2
f 4//3 7//3 6//3
f 4//3 6//3 1//3
f 3//4 8//4 7//4
f 3//4 7//4 4//4
f 2//5 5//5 8//5
f 2//5 8//5 3//5
f 1//6 6//6 5//6
f 1//6 5//6 2//6
usemtl mat1
f 1//1 2//1 3//1
# Vertices: 8, normals: 6, texture coordinates: 0, faces: 12

