# File generated by ImageToStl.com - Free Image and 3D model conversion tools

mtllib ratchet_key.mtl

o obj1
v 48.38325119 131.49964905 14
v 48.36271286 132.03549194 14
v 48.35124969 132.16821289 21
v 48.3819809 131.63285828 21
v 48.30121613 132.56819153 14
v 48.27962494 132.699646 21
v 48.19911957 133.09461975 14
v 48.16753006 133.2240448 21
v 48.05702591 133.61169434 14
v 48.015625 133.73831177 21
v 47.87576675 134.11637878 14
v 47.82479858 134.23944092 21
v 47.6564064 134.60568237 14
v 47.5961647 134.72450256 21
v 47.40023804 135.07678223 14
v 47.33107758 135.19064331 21
v 47.10875702 135.52687073 14
v 47.03108215 135.63510132 21
v 46.78367615 135.95335388 14
v 46.69794083 136.05531311 21
v 46.42690277 136.35366821 14
v 46.33361816 136.44877625 21
v 46.04053116 136.7255249 14
v 45.94023895 136.8132019 21
v 45.62682724 137.06669617 14
v 45.52011871 137.1464386 21
v 45.18822098 137.37521362 14
v 45.07572174 137.44656372 21
v 44.72728729 137.64923096 14
v 44.60965729 137.71176147 21
v 44.2467308 137.88717651 14
v 44.12465668 137.94050598 21
v 43.74936676 138.08763123 14
v 43.6235733 138.13146973 21
v 43.23812103 138.24942017 14
v 43.10933685 138.2835083 21
v 42.71598816 138.37161255 14
v 42.58497238 138.39572144 21
v 42.18603516 138.45346069 14
v 42.05355835 138.46748352 21
v 41.65136719 138.49450684 14
v 41.51820755 138.49835205 21
v 41.11513138 138.49450684 14
v 40.98206329 138.48814392 21
v 40.58046722 138.45346069 14
v 40.44828033 138.43692017 21
v 40.05051041 138.37161255 14
v 39.9199791 138.34500122 21
v 39.52838135 138.24942017 14
v 39.40026855 138.21290588 21
v 39.01713181 138.08763123 14
v 38.89218903 138.04141235 21
v 38.51976776 137.88717651 14
v 38.39873505 137.83152771 21
v 38.03921127 137.64923096 14
v 37.92279053 137.58448792 21
v 37.57827759 137.37521362 14
v 37.46715546 137.30172729 21
v 37.13967133 137.06669617 14
v 37.03450012 136.98493958 21
v 36.72596741 136.7255249 14
v 36.62736511 136.63595581 21
v 36.33959961 136.35366821 14
v 36.24813843 136.25682068 21
v 35.98282623 135.95335388 14
v 35.89905167 135.84977722 21
v 35.65774536 135.52687073 14
v 35.58214569 135.41719055 21
v 35.36626434 135.07678223 14
v 35.29927826 134.9616394 21
v 35.11009216 134.60568237 14
v 35.05211639 134.48574829 21
v 34.89073181 134.11637878 14
v 34.84211349 133.99234009 21
v 34.70947647 133.61169434 14
v 34.67049026 133.48431396 21
v 34.56738281 133.09461975 14
v 34.53826523 132.96463013 21
v 34.46528625 132.56819153 14
v 34.44620514 132.43635559 21
v 34.40378952 132.03549194 14
v 34.3948555 131.90258789 21
v 34.38324738 131.49964905 14
v 34.38451767 131.36643982 21
v 34.40378952 130.96380615 14
v 34.41524887 130.83108521 21
v 34.46528625 130.43110657 14
v 34.48687363 130.2996521 21
v 34.56738281 129.90466309 14
v 34.59896851 129.7752533 21
v 34.70947647 129.38760376 14
v 34.75087738 129.26098633 21
v 34.89073181 128.88293457 14
v 34.9417038 128.75985718 21
v 35.11009216 128.39361572 14
v 35.17033386 128.27479553 21
v 35.36626434 127.92251587 14
v 35.4354248 127.80867004 21
v 35.65774536 127.47241974 14
v 35.73542023 127.36418915 21
v 35.98282623 127.04595947 14
v 36.06855774 126.94398499 21
v 36.33959961 126.64562225 14
v 36.43288422 126.55052185 21
v 36.72596741 126.27377319 14
v 36.82626343 126.18609619 21
v 37.13967133 125.93260193 14
v 37.24638367 125.85285187 21
v 37.57827759 125.6240921 14
v 37.69077682 125.55274963 21
v 38.03921127 125.35006714 14
v 38.15684509 125.28754425 21
v 38.51976776 125.11212158 14
v 38.64184189 125.05878448 21
v 39.01713181 124.91166687 14
v 39.14292908 124.86782837 21
v 39.52838135 124.7498703 14
v 39.65716553 124.71579742 21
v 40.05051041 124.62769318 14
v 40.18152618 124.60357666 21
v 40.58046722 124.54582977 14
v 40.71294403 124.53181458 21
v 41.11513138 124.50478363 14
v 41.24829102 124.50095367 21
v 41.65136719 124.50478363 14
v 41.78443527 124.51115417 21
v 42.18603516 124.54582977 14
v 42.31822205 124.5623703 21
v 42.71598816 124.62769318 14
v 42.84651947 124.65429688 21
v 43.23812103 124.7498703 14
v 43.36623383 124.78639221 21
v 43.74936676 124.91166687 14
v 43.87430573 124.95788574 21
v 44.2467308 125.11212158 14
v 44.36776733 125.16777039 21
v 44.72728729 125.35006714 14
v 44.84371185 125.41481018 21
v 45.18822098 125.6240921 14
v 45.29934311 125.69756317 21
v 45.62682724 125.93260193 14
v 45.73200226 126.01436615 21
v 46.04053116 126.27377319 14
v 46.13913727 126.36335754 21
v 46.42690277 126.64562225 14
v 46.51836014 126.74247742 21
v 46.78367615 127.04595947 14
v 46.86745071 127.14952087 21
v 47.10875702 127.47241974 14
v 47.18435669 127.58209991 21
v 47.40023804 127.92251587 14
v 47.46722412 128.03767395 21
v 47.6564064 128.39361572 14
v 47.71438217 128.5135498 21
v 47.87576675 128.88293457 14
v 47.92438889 129.00695801 21
v 48.05702591 129.38760376 14
v 48.0960083 129.51498413 21
v 48.19911957 129.90466309 14
v 48.22823334 130.03466797 21
v 48.30121613 130.43110657 14
v 48.32029343 130.5629425 21
v 48.36271286 130.96380615 14
v 48.37164307 131.09671021 21
v 35.00873184 129.78923035 21.40000153
v 34.89325714 130.2996521 21.40000153
v 34.61602783 130.2996521 21.1272049
v 35.16428757 129.28956604 21.40000153
v 35.35894012 128.80378723 21.40000153
v 35.59146881 128.33496094 21.40000153
v 35.8604126 127.8860321 21.40000153
v 36.16407776 127.45982361 21.40000153
v 36.50055313 127.05901337 21.40000153
v 36.86772919 126.68611145 21.40000153
v 37.26329422 126.3434906 21.40000153
v 37.68476486 126.03327942 21.40000153
v 38.12948608 125.75743866 21.40000153
v 38.59466171 125.51769257 21.40000153
v 39.0773735 125.31555939 21.40000153
v 39.57458115 125.15231323 21.40000153
v 40.0831604 125.02896118 21.40000153
v 40.59991455 124.94629669 21.40000153
v 41.12158966 124.90484619 21.40000153
v 41.64491272 124.90484619 21.40000153
v 42.16659164 124.94629669 21.40000153
v 42.68333817 125.02896118 21.40000153
v 43.19191742 125.15231323 21.40000153
v 43.68912506 125.31555939 21.40000153
v 44.17183685 125.51769257 21.40000153
v 44.6370163 125.75743866 21.40000153
v 45.0817337 126.03327942 21.40000153
v 45.50320435 126.3434906 21.40000153
v 45.89877319 126.68611145 21.40000153
v 46.26594543 127.05901337 21.40000153
v 46.60242462 127.45982361 21.40000153
v 46.90608978 127.8860321 21.40000153
v 47.17502975 128.33496094 21.40000153
v 47.40756226 128.80378723 21.40000153
v 47.602211 129.28956604 21.40000153
v 47.75776291 129.78923035 21.40000153
v 48.15047455 130.2996521 21.1272049
v 47.87324524 130.2996521 21.40000153
v 48.2179718 130.77726746 21.1272049
v 48.25180817 131.25845337 21.1272049
v 48.25180817 131.74084473 21.1272049
v 48.2179718 132.22201538 21.1272049
v 48.15047455 132.699646 21.1272049
v 47.75776291 133.21006775 21.40000153
v 47.87324524 132.699646 21.40000153
v 47.602211 133.70974731 21.40000153
v 47.40756226 134.19552612 21.40000153
v 47.17502975 134.66433716 21.40000153
v 46.90608978 135.11326599 21.40000153
v 46.60242462 135.53947449 21.40000153
v 46.26594543 135.9402771 21.40000153
v 45.89877319 136.31318665 21.40000153
v 45.50320435 136.6558075 21.40000153
v 45.0817337 136.96601868 21.40000153
v 44.6370163 137.24185181 21.40000153
v 44.17183685 137.4815979 21.40000153
v 43.68912506 137.68373108 21.40000153
v 43.19191742 137.84698486 21.40000153
v 42.68333817 137.97033691 21.40000153
v 42.16659164 138.05299377 21.40000153
v 41.64491272 138.09446716 21.40000153
v 41.12158966 138.09446716 21.40000153
v 40.59991455 138.05299377 21.40000153
v 40.0831604 137.97033691 21.40000153
v 39.57458115 137.84698486 21.40000153
v 39.0773735 137.68373108 21.40000153
v 38.59466171 137.4815979 21.40000153
v 38.12948608 137.24185181 21.40000153
v 37.68476486 136.96601868 21.40000153
v 37.26329422 136.6558075 21.40000153
v 36.86772919 136.31318665 21.40000153
v 36.50055313 135.9402771 21.40000153
v 36.16407776 135.53947449 21.40000153
v 35.8604126 135.11326599 21.40000153
v 35.59146881 134.66433716 21.40000153
v 35.35894012 134.19552612 21.40000153
v 35.16428757 133.70974731 21.40000153
v 35.00873184 133.21006775 21.40000153
v 34.61602783 132.699646 21.1272049
v 34.89325714 132.699646 21.40000153
v 34.54852295 132.22201538 21.1272049
v 34.5146904 131.74084473 21.1272049
v 34.5146904 131.25845337 21.1272049
v 34.54852295 130.77726746 21.1272049
v 40.49932098 137.4855957 14
v 46.12505341 135.25820923 14
v 45.76308441 134.97131348 14.40000057
v 40.56679153 137.02867126 14.40000057
v 47.00894928 129.27249146 14
v 46.57950592 129.44252014 14.40000057
v 42.26711273 125.51415253 14
v 42.19963455 125.97107697 14.40000057
v 36.1869278 133.55722046 14.40000057
v 37.0033493 128.02842712 14.40000057
v 36.6413765 127.741539 14
v 35.75748062 133.72724915 14
v 42.19963455 125.97107697 20.39999962
v 46.57950592 129.44252014 20.39999962
v 37.0033493 128.02842712 20.39999962
v 36.1869278 133.55722046 20.39999962
v 45.76308441 134.97131348 20.39999962
v 40.56679153 137.02867126 20.39999962
v 45.68325043 132.699646 21.40000153
v 41.38325119 136.99964905 21.40000153
v 37.08324814 132.699646 21.40000153
v 37.08324814 130.2996521 21.40000153
v 41.38325119 125.99964905 21.40000153
v 45.68325043 130.2996521 21.40000153
v 48.27962494 132.699646 21.40000153
v 48.58948135 132.699646 22.05506897
v 48.90999222 132.699646 22.73345947
v 49.241745 132.699646 23.43639374
v 49.58535767 132.699646 24.16517448
v 49.9414978 132.699646 24.92121124
v 50.3108902 132.699646 25.70601463
v 50.69430542 132.699646 26.52122116
v 51.09257126 132.699646 27.36858749
v 51.50659561 132.699646 28.2500248
v 51.93733597 132.699646 29.16758728
v 52.15930176 132.699646 29.64060974
v 52.38584518 132.699646 30.12351799
v 52.61711884 132.699646 30.6166172
v 52.85327148 132.699646 31.12023163
v 53.09444809 132.699646 31.63470078
v 53.34083176 132.699646 32.16037369
v 53.59258652 132.699646 32.69761276
v 53.84988785 132.699646 33.2468071
v 54.11292648 132.699646 33.80835342
v 54.38189697 132.699646 34.38267136
v 54.6570015 132.699646 34.97019196
v 54.9384613 132.699646 35.57138062
v 54.81077194 132.09440613 35.21211243
v 54.66175079 131.49964905 34.86428833
v 54.81077194 130.90487671 35.21211243
v 54.9384613 130.2996521 35.57138062
v 54.6570015 130.2996521 34.97019196
v 54.38189697 130.2996521 34.38267136
v 54.11292648 130.2996521 33.80835342
v 53.84988785 130.2996521 33.2468071
v 53.59258652 130.2996521 32.69761276
v 53.34083176 130.2996521 32.16037369
v 53.09444809 130.2996521 31.63470078
v 52.85327148 130.2996521 31.12023163
v 52.61711884 130.2996521 30.6166172
v 52.38584518 130.2996521 30.12351799
v 52.15930176 130.2996521 29.64060974
v 51.93733597 130.2996521 29.16758728
v 51.50659561 130.2996521 28.2500248
v 51.09257126 130.2996521 27.36858749
v 50.69430542 130.2996521 26.52122116
v 50.3108902 130.2996521 25.70601463
v 49.9414978 130.2996521 24.92121124
v 49.58535767 130.2996521 24.16517448
v 49.241745 130.2996521 23.43639374
v 48.90999222 130.2996521 22.73345947
v 48.58948135 130.2996521 22.05506897
v 48.27962494 130.2996521 21.40000153
v 34.48687363 130.2996521 21.40000153
v 34.17701721 130.2996521 22.05506897
v 33.85650635 130.2996521 22.73345947
v 33.52475739 130.2996521 23.43639374
v 33.18114471 130.2996521 24.16517448
v 32.82500458 130.2996521 24.92121124
v 32.45560837 130.2996521 25.70601463
v 32.07219315 130.2996521 26.52122116
v 31.6739254 130.2996521 27.36858749
v 31.25990677 130.2996521 28.2500248
v 30.82916451 130.2996521 29.16758728
v 30.60720062 130.2996521 29.64060974
v 30.38065147 130.2996521 30.12351799
v 30.14938164 130.2996521 30.6166172
v 29.9132328 130.2996521 31.12023163
v 29.67205048 130.2996521 31.63470078
v 29.42566872 130.2996521 32.16037369
v 29.17391586 130.2996521 32.69761276
v 28.91661453 130.2996521 33.2468071
v 28.6535759 130.2996521 33.80835342
v 28.38460541 130.2996521 34.38267136
v 28.10949707 130.2996521 34.97019196
v 27.82803726 130.2996521 35.57138062
v 27.95573044 130.90487671 35.21211243
v 28.10474777 131.49964905 34.86428833
v 27.95573044 132.09440613 35.21211243
v 27.82803726 132.699646 35.57138062
v 28.10949707 132.699646 34.97019196
v 28.38460541 132.699646 34.38267136
v 28.6535759 132.699646 33.80835342
v 28.91661453 132.699646 33.2468071
v 29.17391586 132.699646 32.69761276
v 29.42566872 132.699646 32.16037369
v 29.67205048 132.699646 31.63470078
v 29.9132328 132.699646 31.12023163
v 30.14938164 132.699646 30.6166172
v 30.38065147 132.699646 30.12351799
v 30.60720062 132.699646 29.64060974
v 30.82916451 132.699646 29.16758728
v 31.25990677 132.699646 28.2500248
v 31.6739254 132.699646 27.36858749
v 32.07219315 132.699646 26.52122116
v 32.45560837 132.699646 25.70601463
v 32.82500458 132.699646 24.92121124
v 33.18114471 132.699646 24.16517448
v 33.52475739 132.699646 23.43639374
v 33.85650635 132.699646 22.73345947
v 34.17701721 132.699646 22.05506897
v 34.48687363 132.699646 21.40000153
v 41.38325119 130.2996521 33.90909195
v 27.69778442 130.2996521 36.04419327
v 49.71392059 130.2996521 43.37995529
v 49.22390366 130.2996521 43.40000153
v 33.54259491 130.2996521 43.40000153
v 27.57203865 130.2996521 37.99366379
v 27.54349709 130.2996521 37.50407028
v 55.06871033 130.2996521 36.04419327
v 55.15991592 130.2996521 36.52606583
v 55.21146393 130.2996521 37.01377869
v 55.22300339 130.2996521 37.50407028
v 55.19446564 130.2996521 37.99366379
v 55.12603378 130.2996521 38.47929382
v 55.01817322 130.2996521 38.95771408
v 54.87159729 130.2996521 39.42572403
v 54.68729401 130.2996521 39.88020325
v 54.46648407 130.2996521 40.3181076
v 54.21065521 130.2996521 40.73651886
v 53.92150116 130.2996521 41.13263702
v 53.60096359 130.2996521 41.50382233
v 53.25119019 130.2996521 41.84757996
v 52.87450409 130.2996521 42.16163254
v 52.47342682 130.2996521 42.44386673
v 52.05064392 130.2996521 42.6924057
v 51.60897064 130.2996521 42.90558243
v 51.15136719 130.2996521 43.08197784
v 50.6808815 130.2996521 43.22041321
v 50.20066833 130.2996521 43.31996155
v 33.05257797 130.2996521 43.37995529
v 32.56583405 130.2996521 43.31996155
v 32.08561707 130.2996521 43.22041321
v 31.61513329 130.2996521 43.08197784
v 31.15752983 130.2996521 42.90558243
v 30.71585655 130.2996521 42.6924057
v 30.29307175 130.2996521 42.44386673
v 29.89199638 130.2996521 42.16163254
v 29.51531219 130.2996521 41.84757996
v 29.16553307 130.2996521 41.50382233
v 28.84499741 130.2996521 41.13263702
v 28.55584908 130.2996521 40.73651886
v 28.3000164 130.2996521 40.3181076
v 28.07920647 130.2996521 39.88020325
v 27.89490128 130.2996521 39.42572403
v 27.74832726 130.2996521 38.95771408
v 27.64046669 130.2996521 38.47929382
v 27.55503845 130.2996521 37.01377869
v 27.60658264 130.2996521 36.52606583
v 55.06871033 132.699646 36.04419327
v 55.15991592 132.699646 36.52606583
v 55.21146393 132.699646 37.01377869
v 55.22300339 132.699646 37.50407028
v 55.19446564 132.699646 37.99366379
v 55.12603378 132.699646 38.47929382
v 55.01817322 132.699646 38.95771408
v 54.87159729 132.699646 39.42572403
v 54.68729401 132.699646 39.88020325
v 54.46648407 132.699646 40.3181076
v 54.21065521 132.699646 40.73651886
v 53.92150116 132.699646 41.13263702
v 53.60096359 132.699646 41.50382233
v 53.25119019 132.699646 41.84757996
v 52.87450409 132.699646 42.16163254
v 52.47342682 132.699646 42.44386673
v 52.05064392 132.699646 42.6924057
v 51.60897064 132.699646 42.90558243
v 51.15136719 132.699646 43.08197784
v 50.6808815 132.699646 43.22041321
v 50.20066833 132.699646 43.31996155
v 49.71392059 132.699646 43.37995529
v 49.22390366 132.699646 43.40000153
v 27.69778442 132.699646 36.04419327
v 27.60658264 132.699646 36.52606583
v 27.55503845 132.699646 37.01377869
v 27.54349709 132.699646 37.50407028
v 27.57203865 132.699646 37.99366379
v 27.64046669 132.699646 38.47929382
v 27.74832726 132.699646 38.95771408
v 27.89490128 132.699646 39.42572403
v 28.07920647 132.699646 39.88020325
v 28.3000164 132.699646 40.3181076
v 28.55584908 132.699646 40.73651886
v 28.84499741 132.699646 41.13263702
v 29.16553307 132.699646 41.50382233
v 29.51531219 132.699646 41.84757996
v 29.89199638 132.699646 42.16163254
v 30.29307175 132.699646 42.44386673
v 30.71585655 132.699646 42.6924057
v 31.15752983 132.699646 42.90558243
v 31.61513329 132.699646 43.08197784
v 32.08561707 132.699646 43.22041321
v 32.56583405 132.699646 43.31996155
v 33.05257797 132.699646 43.37995529
v 33.54259491 132.699646 43.40000153
v 41.38325119 132.699646 33.90909195
vn 0.99927 0.0383 0.00091
vn 0.99836 0.05731 -0.00091
vn 0.9934 0.11468 0.00091
vn 0.99104 0.13357 -0.00091
vn 0.98171 0.19039 0.00091
vn 0.97791 0.20904 -0.00091
vn 0.96425 0.26498 0.00091
vn 0.95904 0.28328 -0.00091
vn 0.94114 0.33802 0.00091
vn 0.93454 0.35586 -0.00091
vn 0.9125 0.40908 0.00091
vn 0.90455 0.42636 -0.00091
vn 0.87851 0.47772 0.00091
vn 0.86927 0.49434 -0.00091
vn 0.83936 0.54357 0.00091
vn 0.82887 0.55944 -0.00091
vn 0.7953 0.60622 0.00091
vn 0.7836 0.62126 -0.00091
vn 0.74655 0.66533 0.00091
vn 0.73376 0.67941 -0.00091
vn 0.69343 0.72052 0.00091
vn 0.67959 0.73359 -0.00091
vn 0.63624 0.77149 0.00091
vn 0.62145 0.78346 -0.00091
vn 0.57533 0.81792 0.00091
vn 0.55966 0.82872 -0.00091
vn 0.51101 0.85958 0.00091
vn 0.49456 0.86915 -0.00091
vn 0.44372 0.89616 0.00091
vn 0.42659 0.90444 -0.00091
vn 0.37381 0.9275 0.00091
vn 0.3561 0.93445 -0.00091
vn 0.30173 0.95339 0.00091
vn 0.28352 0.95897 -0.00091
vn 0.22786 0.97369 0.00091
vn 0.20929 0.97785 -0.00091
vn 0.15265 0.98828 0.00091
vn 0.13381 0.99101 -0.00091
vn 0.07654 0.99707 0.00091
vn 0.05755 0.99834 -0.00091
vn 0 1 0.00091
vn -0.01903 0.99982 -0.00091
vn -0.07654 0.99707 0.00091
vn -0.0955 0.99543 -0.00091
vn -0.15264 0.98828 0.00091
vn -0.17143 0.9852 -0.00091
vn -0.22786 0.97369 0.00091
vn -0.24635 0.96918 -0.00091
vn -0.30173 0.95339 0.00091
vn -0.3198 0.94748 -0.00091
vn -0.37381 0.9275 0.00091
vn -0.3914 0.92022 -0.00091
vn -0.44372 0.89616 0.00091
vn -0.46069 0.88756 -0.00091
vn -0.51101 0.85958 0.00091
vn -0.52729 0.84968 -0.00091
vn -0.57533 0.81792 0.00091
vn -0.59077 0.80684 -0.00091
vn -0.63624 0.77149 0.00091
vn -0.65081 0.75924 -0.00091
vn -0.69343 0.72052 0.00091
vn -0.70702 0.70719 -0.00091
vn -0.74655 0.66533 0.00091
vn -0.75908 0.651 -0.00091
vn -0.7953 0.60622 0.00091
vn -0.80669 0.59098 -0.00091
vn -0.83936 0.54357 0.00091
vn -0.84955 0.5275 -0.00091
vn -0.87851 0.47772 0.00091
vn -0.88744 0.46092 -0.00091
vn -0.9125 0.40908 0.00091
vn -0.92012 0.39162 -0.00091
vn -0.94114 0.33802 0.00091
vn -0.9474 0.32005 -0.00091
vn -0.96425 0.26498 0.00091
vn -0.96912 0.24658 -0.00091
vn -0.98171 0.19039 0.00091
vn -0.98515 0.17167 -0.00091
vn -0.9934 0.11468 0.00091
vn -0.9954 0.09576 -0.00091
vn -0.99927 0.0383 0.00091
vn -0.99981 0.01928 -0.00091
vn -0.99927 -0.0383 0.00091
vn -0.99836 -0.05731 -0.00091
vn -0.9934 -0.11468 0.00091
vn -0.99104 -0.13357 -0.00091
vn -0.98171 -0.19039 0.00091
vn -0.97791 -0.20904 -0.00091
vn -0.96425 -0.26498 0.00091
vn -0.95903 -0.28329 -0.00091
vn -0.94114 -0.33802 0.00091
vn -0.93454 -0.35586 -0.00091
vn -0.9125 -0.40907 0.00091
vn -0.90455 -0.42636 -0.00091
vn -0.87851 -0.47772 0.00091
vn -0.86926 -0.49435 -0.00091
vn -0.83936 -0.54357 0.00091
vn -0.82887 -0.55944 -0.00091
vn -0.79529 -0.60623 0.00091
vn -0.78361 -0.62125 -0.00091
vn -0.74656 -0.66532 0.00091
vn -0.73375 -0.67941 -0.00091
vn -0.69343 -0.72052 0.00091
vn -0.6796 -0.73359 -0.00091
vn -0.63624 -0.77149 0.00091
vn -0.62144 -0.78346 -0.00091
vn -0.57531 -0.81793 0.00091
vn -0.55965 -0.82873 -0.00091
vn -0.51102 -0.85957 0.00091
vn -0.49457 -0.86914 -0.00091
vn -0.44372 -0.89616 0.00091
vn -0.4266 -0.90444 -0.00091
vn -0.37381 -0.9275 0.00091
vn -0.3561 -0.93445 -0.00091
vn -0.30173 -0.95339 0.00091
vn -0.28352 -0.95897 -0.00091
vn -0.22784 -0.9737 0.00091
vn -0.20927 -0.97786 -0.00091
vn -0.15266 -0.98828 0.00091
vn -0.13383 -0.991 -0.00091
vn -0.07654 -0.99707 0.00091
vn -0.05755 -0.99834 -0.00091
vn 0 -1 0.00091
vn 0.01903 -0.99982 -0.00091
vn 0.07654 -0.99707 0.00091
vn 0.0955 -0.99543 -0.00091
vn 0.15266 -0.98828 0.00091
vn 0.17143 -0.9852 -0.00091
vn 0.22784 -0.9737 0.00091
vn 0.24635 -0.96918 -0.00091
vn 0.30173 -0.95339 0.00091
vn 0.3198 -0.94748 -0.00091
vn 0.37381 -0.9275 0.00091
vn 0.3914 -0.92022 -0.00091
vn 0.44372 -0.89616 0.00091
vn 0.46069 -0.88756 -0.00091
vn 0.51102 -0.85957 0.00091
vn 0.52729 -0.84968 -0.00091
vn 0.57531 -0.81793 0.00091
vn 0.59078 -0.80683 -0.00091
vn 0.63624 -0.77149 0.00091
vn 0.65081 -0.75924 -0.00091
vn 0.69343 -0.72052 0.00091
vn 0.70701 -0.7072 -0.00091
vn 0.74655 -0.66532 0.00091
vn 0.75908 -0.651 -0.00091
vn 0.79529 -0.60622 0.00091
vn 0.80669 -0.59098 -0.00091
vn 0.83936 -0.54357 0.00091
vn 0.84956 -0.52749 -0.00091
vn 0.87851 -0.47772 0.00091
vn 0.88745 -0.46091 -0.00091
vn 0.9125 -0.40907 0.00091
vn 0.92012 -0.39163 -0.00091
vn 0.94114 -0.33802 0.00091
vn 0.9474 -0.32004 -0.00091
vn 0.96425 -0.26498 0.00091
vn 0.96912 -0.24658 -0.00091
vn 0.98171 -0.19039 0.00091
vn 0.98515 -0.17167 -0.00091
vn 0.9934 -0.11468 0.00091
vn 0.9954 -0.09576 -0.00091
vn 0.99927 -0.0383 0.00091
vn 0.99981 -0.01928 -0.00091
vn -0.68835 -0.14714 0.71029
vn -0.69282 -0.15674 0.70387
vn 0 -1 0
vn -0.67428 -0.19917 0.71111
vn -0.67904 -0.2114 0.703
vn -0.65624 -0.24989 0.71197
vn -0.661 -0.26487 0.70208
vn -0.63437 -0.29901 0.71286
vn -0.63879 -0.31683 0.70112
vn -0.6088 -0.34623 0.71379
vn -0.61254 -0.36696 0.7001
vn -0.57969 -0.39125 0.71476
vn -0.58239 -0.41495 0.69903
vn -0.54723 -0.43385 0.71576
vn -0.54852 -0.46048 0.69791
vn -0.51164 -0.47374 0.7168
vn -0.51113 -0.50329 0.69674
vn -0.47312 -0.5107 0.71787
vn -0.47043 -0.54311 0.69551
vn -0.43192 -0.54453 0.71898
vn -0.42665 -0.57967 0.69423
vn -0.39828 -0.58978 0.70252
vn -0.34336 -0.60341 0.71972
vn -0.37982 -0.61235 0.69337
vn -0.29667 -0.62898 0.71859
vn -0.32953 -0.63939 0.69469
vn -0.24804 -0.6509 0.7175
vn -0.27736 -0.66237 0.69595
vn -0.1978 -0.66902 0.71644
vn -0.22364 -0.68115 0.69715
vn -0.14622 -0.68323 0.71541
vn -0.16872 -0.69564 0.6983
vn -0.09364 -0.69343 0.71441
vn -0.1129 -0.70575 0.69941
vn -0.04033 -0.69953 0.71346
vn -0.05654 -0.71145 0.70046
vn 0.01335 -0.7015 0.71255
vn 0 -0.71271 0.70146
vn 0.06709 -0.69931 0.71167
vn 0.05638 -0.70954 0.70241
vn 0.12058 -0.69296 0.71082
vn 0.11229 -0.70196 0.70331
vn 0.17347 -0.68248 0.71002
vn 0.16736 -0.69003 0.70416
vn 0.22545 -0.66793 0.70926
vn 0.22125 -0.67385 0.70497
vn 0.2762 -0.64938 0.70853
vn 0.27365 -0.6535 0.70572
vn 0.32542 -0.62694 0.70785
vn 0.32424 -0.62913 0.70644
vn 0.3728 -0.60073 0.7072
vn 0.37272 -0.60091 0.7071
vn 0.41805 -0.57093 0.70659
vn 0.41879 -0.56899 0.70771
vn 0.46089 -0.53768 0.70603
vn 0.46218 -0.53359 0.70828
vn 0.50106 -0.5012 0.70551
vn 0.50263 -0.49492 0.70882
vn 0.53832 -0.46167 0.70503
vn 0.53989 -0.45323 0.7093
vn 0.57244 -0.41937 0.70459
vn 0.57374 -0.40878 0.70973
vn 0.6032 -0.37453 0.70419
vn 0.60399 -0.36183 0.71012
vn 0.63041 -0.32741 0.70384
vn 0.63045 -0.31269 0.71046
vn 0.65391 -0.27832 0.70352
vn 0.65296 -0.26164 0.71077
vn 0.67355 -0.22753 0.70325
vn 0.67139 -0.20901 0.71102
vn 0.68921 -0.17536 0.70302
vn 0.68336 -0.14314 0.71592
vn 0.69272 -0.15672 0.70397
vn 0.66876 -0.11654 0.73428
vn 0.73715 -0.10418 0.66765
vn 0.68324 -0.06573 0.72723
vn 0.73391 -0.05161 0.67728
vn 0.69316 -0.01337 0.72066
vn 0.72788 0 0.6857
vn 0.69831 0.04009 0.71467
vn 0.71916 0.05057 0.693
vn 0.6986 0.09416 0.70929
vn 0.70782 0.10003 0.69928
vn 0.68835 0.14714 0.71029
vn 0.69282 0.15675 0.70387
vn 0 1 0
vn 0.67428 0.19917 0.71111
vn 0.67904 0.21139 0.703
vn 0.65625 0.24989 0.71197
vn 0.66101 0.26487 0.70208
vn 0.63437 0.29901 0.71285
vn 0.6388 0.31683 0.70111
vn 0.6088 0.34622 0.71379
vn 0.61254 0.36696 0.70009
vn 0.57969 0.39126 0.71476
vn 0.58239 0.41494 0.69903
vn 0.54723 0.43386 0.71576
vn 0.54852 0.46048 0.69791
vn 0.51164 0.47374 0.7168
vn 0.51113 0.50329 0.69674
vn 0.47312 0.51071 0.71787
vn 0.47043 0.54311 0.69551
vn 0.43192 0.54452 0.71898
vn 0.42665 0.57967 0.69423
vn 0.39828 0.58977 0.70253
vn 0.34335 0.60341 0.71973
vn 0.37982 0.61235 0.69337
vn 0.29667 0.62898 0.71859
vn 0.32953 0.63939 0.69468
vn 0.24805 0.6509 0.7175
vn 0.27736 0.66237 0.69595
vn 0.1978 0.66902 0.71644
vn 0.22364 0.68115 0.69715
vn 0.14623 0.68323 0.71541
vn 0.16871 0.69563 0.69831
vn 0.09363 0.69342 0.71442
vn 0.1129 0.70575 0.6994
vn 0.04033 0.69953 0.71346
vn 0.05655 0.71146 0.70045
vn -0.01335 0.70151 0.71254
vn 0 0.71272 0.70145
vn -0.06709 0.69931 0.71166
vn -0.0564 0.70954 0.70241
vn -0.12058 0.69296 0.71082
vn -0.11229 0.70196 0.70331
vn -0.17347 0.68248 0.71002
vn -0.16736 0.69003 0.70416
vn -0.22544 0.66793 0.70926
vn -0.22125 0.67385 0.70497
vn -0.2762 0.64938 0.70853
vn -0.27365 0.6535 0.70573
vn -0.32542 0.62694 0.70785
vn -0.32424 0.62913 0.70644
vn -0.3728 0.60073 0.7072
vn -0.37272 0.60091 0.7071
vn -0.41804 0.57093 0.70659
vn -0.41879 0.56899 0.70772
vn -0.46089 0.53768 0.70604
vn -0.46218 0.53359 0.70829
vn -0.50106 0.50119 0.70551
vn -0.50263 0.49492 0.70882
vn -0.53832 0.46167 0.70503
vn -0.53989 0.45323 0.7093
vn -0.57244 0.41937 0.70459
vn -0.57374 0.40878 0.70973
vn -0.60319 0.37453 0.70419
vn -0.60399 0.36184 0.71012
vn -0.63041 0.32742 0.70384
vn -0.63045 0.31269 0.71047
vn -0.65391 0.27832 0.70352
vn -0.65296 0.26165 0.71076
vn -0.67355 0.22754 0.70325
vn -0.67139 0.20901 0.71102
vn -0.68921 0.17536 0.70302
vn -0.68336 0.14314 0.71591
vn -0.69272 0.15672 0.70398
vn -0.66877 0.11654 0.73428
vn -0.73715 0.10418 0.66765
vn -0.68324 0.06573 0.72723
vn -0.73392 0.0516 0.67727
vn -0.69316 0.01337 0.72066
vn -0.72788 0 0.6857
vn -0.69831 -0.04009 0.71467
vn -0.71916 -0.05057 0.693
vn -0.6986 -0.09415 0.70929
vn -0.70782 -0.10004 0.69927
vn -0.2603 -0.65745 -0.7071
vn -0.2603 -0.65745 -0.70711
vn -0.69952 -0.1033 -0.7071
vn -0.69952 -0.1033 -0.70711
vn -0.43922 0.55415 -0.70711
vn -0.43922 0.55416 -0.70711
vn 0.69952 0.1033 -0.70711
vn 0.69952 0.1033 -0.7071
vn 0.2603 0.65745 -0.7071
vn 0.2603 0.65745 -0.7071
vn 0.43922 -0.55416 -0.70711
vn 0.43922 -0.55416 -0.70711
vn -0.62115 0.78369 0
vn 0.36812 0.92978 0
vn 0.98927 0.14608 0
vn 0 -0 -1
vn -0.98927 -0.14608 0
vn -0.36812 -0.92978 0
vn 0.62115 -0.78369 0
vn 0 0 1
vn 0.89654 0.1267 -0.42445
vn 0.89671 0.12651 -0.42416
vn 0.89701 0.12558 -0.4238
vn 0.89735 0.1241 -0.42351
vn 0.89773 0.12216 -0.42327
vn 0.89814 0.11976 -0.42308
vn 0.89856 0.1171 -0.42294
vn 0.899 0.11413 -0.42282
vn 0.89944 0.1109 -0.42274
vn 0.89988 0.10752 -0.42268
vn 0.90032 0.10389 -0.42265
vn 0.90066 0.10096 -0.42263
vn 0.90087 0.09912 -0.42262
vn 0.90106 0.09737 -0.42262
vn 0.90128 0.09533 -0.42262
vn 0.90151 0.09317 -0.42262
vn 0.90169 0.09131 -0.42262
vn 0.90188 0.08947 -0.42263
vn 0.90209 0.08725 -0.42263
vn 0.90228 0.08524 -0.42264
vn 0.90247 0.08314 -0.42265
vn 0.90265 0.08112 -0.42266
vn 0.90283 0.07906 -0.42268
vn 0.90426 0.06015 -0.42272
vn 0.90408 0.06357 -0.4226
vn 0.90615 0.02002 -0.42247
vn 0.9062 0 -0.42285
vn 0.90615 -0.02002 -0.42247
vn 0.904 -0.06051 -0.42323
vn 0.90398 -0.06048 -0.42328
vn 0.90422 -0.06157 -0.42261
vn 0.90317 -0.07332 -0.42298
vn 0.90307 -0.07437 -0.42301
vn 0.90407 -0.06357 -0.42262
vn 0.90209 -0.08726 -0.42263
vn 0.90188 -0.08947 -0.42263
vn 0.90169 -0.09132 -0.42262
vn 0.90151 -0.09317 -0.42262
vn 0.90128 -0.09533 -0.42262
vn 0.90106 -0.09737 -0.42262
vn 0.90087 -0.09912 -0.42262
vn 0.90066 -0.10096 -0.42263
vn 0.90032 -0.1039 -0.42265
vn 0.89988 -0.10753 -0.42268
vn 0.89944 -0.11091 -0.42274
vn 0.899 -0.11413 -0.42282
vn 0.89856 -0.1171 -0.42294
vn 0.89814 -0.11976 -0.42308
vn 0.89773 -0.12216 -0.42327
vn 0.89735 -0.1241 -0.42351
vn 0.89701 -0.12558 -0.4238
vn 0.89671 -0.12652 -0.42416
vn 0.89654 -0.12671 -0.42445
vn -0.89654 -0.12671 -0.42446
vn -0.89671 -0.12651 -0.42416
vn -0.89701 -0.12559 -0.4238
vn -0.89735 -0.1241 -0.42351
vn -0.89773 -0.12215 -0.42327
vn -0.89814 -0.11979 -0.42308
vn -0.89856 -0.11713 -0.42294
vn -0.899 -0.11413 -0.42282
vn -0.89944 -0.11091 -0.42274
vn -0.89988 -0.10746 -0.42268
vn -0.90032 -0.10391 -0.42265
vn -0.90065 -0.10104 -0.42263
vn -0.90086 -0.0992 -0.42262
vn -0.90108 -0.09721 -0.42262
vn -0.90128 -0.09534 -0.42262
vn -0.9015 -0.09327 -0.42262
vn -0.90169 -0.09132 -0.42262
vn -0.90188 -0.08939 -0.42263
vn -0.90209 -0.08727 -0.42263
vn -0.90228 -0.08526 -0.42264
vn -0.90246 -0.08325 -0.42265
vn -0.90265 -0.08112 -0.42266
vn -0.90282 -0.07917 -0.42267
vn -0.90426 -0.06015 -0.42272
vn -0.90408 -0.06357 -0.4226
vn -0.90615 -0.02003 -0.42247
vn -0.9062 0 -0.42285
vn -0.90615 0.02003 -0.42247
vn -0.904 0.0605 -0.42323
vn -0.90398 0.06048 -0.42328
vn -0.90422 0.06156 -0.42261
vn -0.90316 0.07337 -0.42298
vn -0.90307 0.07437 -0.42301
vn -0.90407 0.06357 -0.42262
vn -0.90209 0.08726 -0.42263
vn -0.90188 0.08939 -0.42263
vn -0.90169 0.09132 -0.42262
vn -0.9015 0.09327 -0.42262
vn -0.90128 0.09534 -0.42262
vn -0.90108 0.09721 -0.42262
vn -0.90086 0.0992 -0.42262
vn -0.90065 0.10104 -0.42263
vn -0.90032 0.1039 -0.42265
vn -0.89988 0.10746 -0.42268
vn -0.89944 0.1109 -0.42274
vn -0.899 0.11413 -0.42282
vn -0.89856 0.11712 -0.42294
vn -0.89814 0.11979 -0.42308
vn -0.89773 0.12215 -0.42327
vn -0.89735 0.1241 -0.42351
vn -0.89701 0.12558 -0.4238
vn -0.89671 0.12651 -0.42416
vn -0.89654 0.12671 -0.42446
vn 0.94226 0 -0.33489
vn 0.96409 0 -0.26559
vn 0.98256 0 -0.18597
vn 0.99446 0 -0.1051
vn 0.99972 0 -0.02353
vn 0.99831 -0 0.05819
vn 0.99022 -0 0.13953
vn 0.97552 -0 0.21993
vn 0.95429 -0 0.29887
vn 0.9267 -0 0.3758
vn 0.89291 -0 0.45024
vn 0.85316 -0 0.52165
vn 0.8077 -0 0.5896
vn 0.75686 -0 0.65358
vn 0.70095 -0 0.71321
vn 0.64036 -0 0.76808
vn 0.57549 -0 0.81781
vn 0.50678 -0 0.86208
vn 0.43468 -0 0.90058
vn 0.35968 -0 0.93308
vn 0.28227 -0 0.95933
vn 0.20298 -0 0.97918
vn 0.12233 -0 0.99249
vn 0.04088 -0 0.99916
vn 0.91919 0 -0.39382
vn -0.91919 0 -0.39381
vn -0.94225 -0 -0.3349
vn -0.96397 0.01542 -0.26556
vn -0.95516 0 -0.2961
vn -0.96308 -0.0457 -0.26531
vn -0.98256 0 -0.18596
vn -0.99446 0 -0.1051
vn -0.99972 0 -0.02353
vn -0.99831 0 0.0582
vn -0.99022 0 0.13953
vn -0.97552 0 0.21993
vn -0.95429 0 0.29887
vn -0.9267 0 0.3758
vn -0.89291 0 0.45024
vn -0.85316 0 0.52165
vn -0.8077 0 0.58959
vn -0.75686 0 0.65358
vn -0.70095 0 0.71322
vn -0.64036 0 0.76807
vn -0.57549 0 0.81781
vn -0.50678 0 0.86208
vn -0.43468 0 0.90058
vn -0.35968 0 0.93308
vn -0.28228 0 0.95933
vn -0.20298 0 0.97918
vn -0.12233 0 0.99249
vn -0.04088 0 0.99916
vn -0.6871 0.6871 0.23619
vn 0.6871 0.6871 0.23619
vn -0.6871 -0.6871 0.23619
vn 0.6871 -0.6871 0.23619
usemtl mat2
f 1//2 3//2 4//2
f 2//3 5//3 6//3
f 2//4 6//4 3//4
f 5//5 7//5 8//5
f 5//6 8//6 6//6
f 7//7 9//7 10//7
f 7//8 10//8 8//8
f 9//9 11//9 12//9
f 9//10 12//10 10//10
f 11//11 13//11 14//11
f 11//12 14//12 12//12
f 13//13 15//13 16//13
f 13//14 16//14 14//14
f 15//15 17//15 18//15
f 15//16 18//16 16//16
f 17//17 19//17 20//17
f 17//18 20//18 18//18
f 19//19 21//19 22//19
f 19//20 22//20 20//20
f 21//21 23//21 24//21
f 21//22 24//22 22//22
f 23//23 25//23 26//23
f 23//24 26//24 24//24
f 25//25 27//25 28//25
f 25//26 28//26 26//26
f 27//27 29//27 30//27
f 27//28 30//28 28//28
f 29//29 31//29 32//29
f 29//30 32//30 30//30
f 31//31 33//31 34//31
f 31//32 34//32 32//32
f 33//33 35//33 36//33
f 33//34 36//34 34//34
f 35//35 37//35 38//35
f 35//36 38//36 36//36
f 37//37 39//37 40//37
f 37//38 40//38 38//38
f 39//39 41//39 42//39
f 39//40 42//40 40//40
f 41//41 43//41 44//41
f 41//42 44//42 42//42
f 43//43 45//43 46//43
f 43//44 46//44 44//44
f 45//45 47//45 48//45
f 45//46 48//46 46//46
f 47//47 49//47 50//47
f 47//48 50//48 48//48
f 49//49 51//49 52//49
f 49//50 52//50 50//50
f 51//51 53//51 54//51
f 51//52 54//52 52//52
f 53//53 55//53 56//53
f 53//54 56//54 54//54
f 55//55 57//55 58//55
f 55//56 58//56 56//56
f 57//57 59//57 60//57
f 57//58 60//58 58//58
f 59//59 61//59 62//59
f 59//60 62//60 60//60
f 61//61 63//61 64//61
f 61//62 64//62 62//62
f 63//63 65//63 66//63
f 63//64 66//64 64//64
f 65//65 67//65 68//65
f 65//66 68//66 66//66
f 67//67 69//67 70//67
f 67//68 70//68 68//68
f 69//69 71//69 72//69
f 69//70 72//70 70//70
f 71//71 73//71 74//71
f 71//72 74//72 72//72
f 73//73 75//73 76//73
f 73//74 76//74 74//74
f 75//75 77//75 78//75
f 75//76 78//76 76//76
f 77//77 79//77 80//77
f 77//78 80//78 78//78
f 79//79 81//79 82//79
f 79//80 82//80 80//80
f 81//81 83//81 84//81
f 81//82 84//82 82//82
f 83//83 85//83 86//83
f 83//84 86//84 84//84
f 85//85 87//85 88//85
f 85//86 88//86 86//86
f 87//87 89//87 90//87
f 87//88 90//88 88//88
f 89//89 91//89 92//89
f 89//90 92//90 90//90
f 91//91 93//91 94//91
f 91//92 94//92 92//92
f 93//93 95//93 96//93
f 93//94 96//94 94//94
f 95//95 97//95 98//95
f 95//96 98//96 96//96
f 97//97 99//97 100//97
f 97//98 100//98 98//98
f 99//99 101//99 102//99
f 99//100 102//100 100//100
f 101//101 103//101 104//101
f 101//102 104//102 102//102
f 103//103 105//103 106//103
f 103//104 106//104 104//104
f 105//105 107//105 108//105
f 105//106 108//106 106//106
f 107//107 109//107 110//107
f 107//108 110//108 108//108
f 109//109 111//109 112//109
f 109//110 112//110 110//110
f 111//111 113//111 114//111
f 111//112 114//112 112//112
f 113//113 115//113 116//113
f 113//114 116//114 114//114
f 115//115 117//115 118//115
f 115//116 118//116 116//116
f 117//117 119//117 120//117
f 117//118 120//118 118//118
f 119//119 121//119 122//119
f 119//120 122//120 120//120
f 121//121 123//121 124//121
f 121//122 124//122 122//122
f 123//123 125//123 126//123
f 123//124 126//124 124//124
f 125//125 127//125 128//125
f 125//126 128//126 126//126
f 127//127 129//127 130//127
f 127//128 130//128 128//128
f 129//129 131//129 132//129
f 129//130 132//130 130//130
f 131//131 133//131 134//131
f 131//132 134//132 132//132
f 133//133 135//133 136//133
f 133//134 136//134 134//134
f 135//135 137//135 138//135
f 135//136 138//136 136//136
f 137//137 139//137 140//137
f 137//138 140//138 138//138
f 139//139 141//139 142//139
f 139//140 142//140 140//140
f 141//141 143//141 144//141
f 141//142 144//142 142//142
f 143//143 145//143 146//143
f 143//144 146//144 144//144
f 145//145 147//145 148//145
f 145//146 148//146 146//146
f 147//147 149//147 150//147
f 147//148 150//148 148//148
f 149//149 151//149 152//149
f 149//150 152//150 150//150
f 151//151 153//151 154//151
f 151//152 154//152 152//152
f 153//153 155//153 156//153
f 153//154 156//154 154//154
f 155//155 157//155 158//155
f 155//156 158//156 156//156
f 157//157 159//157 160//157
f 157//158 160//158 158//158
f 159//159 161//159 162//159
f 159//160 162//160 160//160
f 161//161 163//161 164//161
f 161//162 164//162 162//162
f 163//163 1//163 4//163
f 163//164 4//164 164//164
f 88//165 90//165 165//165
f 88//166 165//166 166//166
f 88//167 166//167 167//167
f 90//168 92//168 168//168
f 90//169 168//169 165//169
f 92//170 94//170 169//170
f 92//171 169//171 168//171
f 94//172 96//172 170//172
f 94//173 170//173 169//173
f 96//174 98//174 171//174
f 96//175 171//175 170//175
f 98//176 100//176 172//176
f 98//177 172//177 171//177
f 100//178 102//178 173//178
f 100//179 173//179 172//179
f 102//180 104//180 174//180
f 102//181 174//181 173//181
f 104//182 106//182 175//182
f 104//183 175//183 174//183
f 106//184 108//184 176//184
f 106//185 176//185 175//185
f 108//186 110//186 176//186
f 176//187 110//187 112//187
f 176//188 112//188 177//188
f 177//189 112//189 114//189
f 177//190 114//190 178//190
f 178//191 114//191 116//191
f 178//192 116//192 179//192
f 179//193 116//193 118//193
f 179//194 118//194 180//194
f 180//195 118//195 120//195
f 180//196 120//196 181//196
f 181//197 120//197 122//197
f 181//198 122//198 182//198
f 182//199 122//199 124//199
f 182//200 124//200 183//200
f 183//201 124//201 126//201
f 183//202 126//202 184//202
f 184//203 126//203 128//203
f 184//204 128//204 185//204
f 185//205 128//205 130//205
f 185//206 130//206 186//206
f 186//207 130//207 132//207
f 186//208 132//208 187//208
f 187//209 132//209 134//209
f 187//210 134//210 188//210
f 188//211 134//211 136//211
f 188//212 136//212 189//212
f 189//213 136//213 138//213
f 189//214 138//214 190//214
f 190//215 138//215 140//215
f 190//216 140//216 191//216
f 191//217 140//217 142//217
f 191//218 142//218 192//218
f 192//219 142//219 144//219
f 192//220 144//220 193//220
f 193//221 144//221 146//221
f 193//222 146//222 194//222
f 194//223 146//223 148//223
f 194//224 148//224 195//224
f 195//225 148//225 150//225
f 195//226 150//226 196//226
f 196//227 150//227 152//227
f 196//228 152//228 197//228
f 197//229 152//229 154//229
f 197//230 154//230 198//230
f 198//231 154//231 156//231
f 198//232 156//232 199//232
f 199//233 156//233 158//233
f 199//234 158//234 200//234
f 200//235 158//235 160//235
f 200//236 160//236 201//236
f 200//237 201//237 202//237
f 160//238 162//238 203//238
f 160//239 203//239 201//239
f 162//240 164//240 204//240
f 162//241 204//241 203//241
f 164//242 4//242 205//242
f 164//243 205//243 204//243
f 4//244 3//244 206//244
f 4//245 206//245 205//245
f 3//246 6//246 207//246
f 3//247 207//247 206//247
f 6//248 8//248 208//248
f 6//249 208//249 209//249
f 6//250 209//250 207//250
f 8//251 10//251 210//251
f 8//252 210//252 208//252
f 10//253 12//253 211//253
f 10//254 211//254 210//254
f 12//255 14//255 212//255
f 12//256 212//256 211//256
f 14//257 16//257 213//257
f 14//258 213//258 212//258
f 16//259 18//259 214//259
f 16//260 214//260 213//260
f 18//261 20//261 215//261
f 18//262 215//262 214//262
f 20//263 22//263 216//263
f 20//264 216//264 215//264
f 22//265 24//265 217//265
f 22//266 217//266 216//266
f 24//267 26//267 218//267
f 24//268 218//268 217//268
f 26//269 28//269 218//269
f 218//270 28//270 30//270
f 218//271 30//271 219//271
f 219//272 30//272 32//272
f 219//273 32//273 220//273
f 220//274 32//274 34//274
f 220//275 34//275 221//275
f 221//276 34//276 36//276
f 221//277 36//277 222//277
f 222//278 36//278 38//278
f 222//279 38//279 223//279
f 223//280 38//280 40//280
f 223//281 40//281 224//281
f 224//282 40//282 42//282
f 224//283 42//283 225//283
f 225//284 42//284 44//284
f 225//285 44//285 226//285
f 226//286 44//286 46//286
f 226//287 46//287 227//287
f 227//288 46//288 48//288
f 227//289 48//289 228//289
f 228//290 48//290 50//290
f 228//291 50//291 229//291
f 229//292 50//292 52//292
f 229//293 52//293 230//293
f 230//294 52//294 54//294
f 230//295 54//295 231//295
f 231//296 54//296 56//296
f 231//297 56//297 232//297
f 232//298 56//298 58//298
f 232//299 58//299 233//299
f 233//300 58//300 60//300
f 233//301 60//301 234//301
f 234//302 60//302 62//302
f 234//303 62//303 235//303
f 235//304 62//304 64//304
f 235//305 64//305 236//305
f 236//306 64//306 66//306
f 236//307 66//307 237//307
f 237//308 66//308 68//308
f 237//309 68//309 238//309
f 238//310 68//310 70//310
f 238//311 70//311 239//311
f 239//312 70//312 72//312
f 239//313 72//313 240//313
f 240//314 72//314 74//314
f 240//315 74//315 241//315
f 241//316 74//316 76//316
f 241//317 76//317 242//317
f 242//318 76//318 78//318
f 242//319 78//319 243//319
f 242//320 243//320 244//320
f 78//321 80//321 245//321
f 78//322 245//322 243//322
f 80//323 82//323 246//323
f 80//324 246//324 245//324
f 82//325 84//325 247//325
f 82//326 247//326 246//326
f 84//327 86//327 248//327
f 84//328 248//328 247//328
f 86//329 88//329 167//329
f 86//330 167//330 248//330
f 249//331 250//331 251//331
f 249//332 251//332 252//332
f 250//333 253//333 254//333
f 250//334 254//334 251//334
f 253//335 255//335 256//335
f 253//336 256//336 254//336
f 257//337 258//337 259//337
f 257//338 259//338 260//338
f 255//339 259//339 258//339
f 255//340 258//340 256//340
f 252//341 257//341 260//341
f 252//342 260//342 249//342
f 254//343 256//343 261//343
f 254//343 261//343 262//343
f 256//344 258//344 263//344
f 256//344 263//344 261//344
f 258//345 257//345 264//345
f 258//345 264//345 263//345
f 2//346 1//346 253//346
f 253//346 1//346 163//346
f 253//346 163//346 161//346
f 161//346 159//346 253//346
f 253//346 159//346 157//346
f 253//346 157//346 155//346
f 155//346 153//346 253//346
f 253//346 153//346 151//346
f 253//346 151//346 149//346
f 149//346 147//346 253//346
f 253//346 147//346 145//346
f 253//346 145//346 143//346
f 143//346 141//346 253//346
f 253//346 141//346 255//346
f 255//346 141//346 139//346
f 255//346 139//346 137//346
f 137//346 135//346 255//346
f 255//346 135//346 133//346
f 255//346 133//346 131//346
f 131//346 129//346 255//346
f 255//346 129//346 127//346
f 255//346 127//346 125//346
f 125//346 123//346 255//346
f 255//346 123//346 121//346
f 255//346 121//346 119//346
f 119//346 117//346 255//346
f 255//346 117//346 115//346
f 255//346 115//346 259//346
f 259//346 115//346 113//346
f 259//346 113//346 111//346
f 111//346 109//346 259//346
f 259//346 109//346 107//346
f 259//346 107//346 105//346
f 105//346 103//346 259//346
f 259//346 103//346 101//346
f 259//346 101//346 99//346
f 99//346 97//346 259//346
f 259//346 97//346 95//346
f 259//346 95//346 93//346
f 93//346 91//346 259//346
f 259//346 91//346 89//346
f 259//346 89//346 87//346
f 259//346 87//346 260//346
f 260//346 87//346 85//346
f 260//346 85//346 83//346
f 83//346 81//346 260//346
f 260//346 81//346 79//346
f 260//346 79//346 77//346
f 77//346 75//346 260//346
f 260//346 75//346 73//346
f 260//346 73//346 71//346
f 71//346 69//346 260//346
f 260//346 69//346 67//346
f 260//346 67//346 65//346
f 65//346 63//346 260//346
f 260//346 63//346 61//346
f 260//346 61//346 59//346
f 260//346 59//346 249//346
f 249//346 59//346 57//346
f 249//346 57//346 55//346
f 55//346 53//346 249//346
f 249//346 53//346 51//346
f 249//346 51//346 49//346
f 49//346 47//346 249//346
f 249//346 47//346 45//346
f 249//346 45//346 43//346
f 43//346 41//346 249//346
f 249//346 41//346 39//346
f 249//346 39//346 37//346
f 37//346 35//346 249//346
f 249//346 35//346 33//346
f 249//346 33//346 250//346
f 250//346 33//346 31//346
f 250//346 31//346 29//346
f 29//346 27//346 250//346
f 250//346 27//346 25//346
f 250//346 25//346 23//346
f 23//346 21//346 250//346
f 250//346 21//346 19//346
f 250//346 19//346 17//346
f 17//346 15//346 250//346
f 250//346 15//346 13//346
f 250//346 13//346 11//346
f 11//346 9//346 250//346
f 250//346 9//346 7//346
f 250//346 7//346 5//346
f 250//346 5//346 253//346
f 253//346 5//346 2//346
f 251//347 254//347 262//347
f 251//347 262//347 265//347
f 252//348 251//348 265//348
f 252//348 265//348 266//348
f 257//349 252//349 266//349
f 257//349 266//349 264//349
f 266//346 265//346 262//346
f 266//346 262//346 261//346
f 261//346 263//346 264//346
f 261//346 264//346 266//346
f 209//350 208//350 267//350
f 267//350 208//350 210//350
f 267//350 210//350 211//350
f 211//350 212//350 267//350
f 267//350 212//350 213//350
f 267//350 213//350 268//350
f 268//350 213//350 214//350
f 214//350 215//350 268//350
f 268//350 215//350 216//350
f 268//350 216//350 217//350
f 217//350 218//350 268//350
f 268//350 218//350 219//350
f 268//350 219//350 220//350
f 220//350 221//350 268//350
f 268//350 221//350 222//350
f 268//350 222//350 223//350
f 223//350 224//350 268//350
f 268//350 224//350 225//350
f 268//350 225//350 226//350
f 226//350 227//350 268//350
f 268//350 227//350 228//350
f 268//350 228//350 229//350
f 229//350 230//350 268//350
f 268//350 230//350 231//350
f 268//350 231//350 232//350
f 232//350 233//350 268//350
f 268//350 233//350 234//350
f 268//350 234//350 235//350
f 235//350 236//350 268//350
f 268//350 236//350 237//350
f 268//350 237//350 238//350
f 238//350 239//350 269//350
f 238//350 269//350 268//350
f 239//350 240//350 269//350
f 269//350 240//350 241//350
f 269//350 241//350 242//350
f 242//350 244//350 269//350
f 166//350 165//350 270//350
f 270//350 165//350 168//350
f 270//350 168//350 169//350
f 169//350 170//350 270//350
f 270//350 170//350 171//350
f 270//350 171//350 271//350
f 271//350 171//350 172//350
f 172//350 173//350 271//350
f 271//350 173//350 174//350
f 271//350 174//350 175//350
f 175//350 176//350 271//350
f 271//350 176//350 177//350
f 271//350 177//350 178//350
f 178//350 179//350 271//350
f 271//350 179//350 180//350
f 271//350 180//350 181//350
f 181//350 182//350 271//350
f 271//350 182//350 183//350
f 271//350 183//350 184//350
f 184//350 185//350 271//350
f 271//350 185//350 186//350
f 271//350 186//350 187//350
f 187//350 188//350 271//350
f 271//350 188//350 189//350
f 271//350 189//350 190//350
f 190//350 191//350 271//350
f 271//350 191//350 192//350
f 271//350 192//350 193//350
f 193//350 194//350 271//350
f 271//350 194//350 195//350
f 271//350 195//350 196//350
f 196//350 197//350 272//350
f 196//350 272//350 271//350
f 197//350 198//350 272//350
f 272//350 198//350 199//350
f 272//350 199//350 200//350
f 200//350 202//350 272//350
f 207//351 273//351 206//351
f 206//352 273//352 274//352
f 206//353 274//353 275//353
f 275//354 276//354 206//354
f 206//355 276//355 277//355
f 206//356 277//356 278//356
f 278//357 279//357 206//357
f 206//358 279//358 280//358
f 206//359 280//359 281//359
f 281//360 282//360 206//360
f 206//361 282//361 283//361
f 206//362 283//362 284//362
f 284//363 285//363 206//363
f 206//364 285//364 286//364
f 206//365 286//365 287//365
f 287//366 288//366 206//366
f 206//367 288//367 289//367
f 206//368 289//368 290//368
f 290//369 291//369 206//369
f 206//370 291//370 292//370
f 206//371 292//371 293//371
f 293//372 294//372 206//372
f 206//373 294//373 295//373
f 206//374 295//374 296//374
f 206//375 296//375 205//375
f 205//376 296//376 297//376
f 205//377 297//377 204//377
f 204//378 297//378 298//378
f 299//379 300//379 298//379
f 298//380 300//380 301//380
f 298//381 301//381 204//381
f 204//382 301//382 302//382
f 204//383 302//383 303//383
f 204//384 303//384 203//384
f 203//385 303//385 304//385
f 203//386 304//386 305//386
f 305//387 306//387 203//387
f 203//388 306//388 307//388
f 203//389 307//389 308//389
f 308//390 309//390 203//390
f 203//391 309//391 310//391
f 203//392 310//392 311//392
f 311//393 312//393 203//393
f 203//394 312//394 313//394
f 203//395 313//395 314//395
f 314//396 315//396 203//396
f 203//397 315//397 316//397
f 203//398 316//398 317//398
f 317//399 318//399 203//399
f 203//400 318//400 319//400
f 203//401 319//401 320//401
f 320//402 321//402 203//402
f 203//403 321//403 201//403
f 167//404 322//404 248//404
f 248//405 322//405 323//405
f 248//406 323//406 324//406
f 324//407 325//407 248//407
f 248//408 325//408 326//408
f 248//409 326//409 327//409
f 327//410 328//410 248//410
f 248//411 328//411 329//411
f 248//412 329//412 330//412
f 330//413 331//413 248//413
f 248//414 331//414 332//414
f 248//415 332//415 333//415
f 333//416 334//416 248//416
f 248//417 334//417 335//417
f 248//418 335//418 336//418
f 336//419 337//419 248//419
f 248//420 337//420 338//420
f 248//421 338//421 339//421
f 339//422 340//422 248//422
f 248//423 340//423 341//423
f 248//424 341//424 342//424
f 342//425 343//425 248//425
f 248//426 343//426 344//426
f 248//427 344//427 345//427
f 248//428 345//428 247//428
f 247//429 345//429 346//429
f 247//430 346//430 246//430
f 246//431 346//431 347//431
f 348//432 349//432 347//432
f 347//433 349//433 350//433
f 347//434 350//434 246//434
f 246//435 350//435 351//435
f 246//436 351//436 352//436
f 246//437 352//437 245//437
f 245//438 352//438 353//438
f 245//439 353//439 354//439
f 354//440 355//440 245//440
f 245//441 355//441 356//441
f 245//442 356//442 357//442
f 357//443 358//443 245//443
f 245//444 358//444 359//444
f 245//445 359//445 360//445
f 360//446 361//446 245//446
f 245//447 361//447 362//447
f 245//448 362//448 363//448
f 363//449 364//449 245//449
f 245//450 364//450 365//450
f 245//451 365//451 366//451
f 366//452 367//452 245//452
f 245//453 367//453 368//453
f 245//454 368//454 369//454
f 369//455 370//455 245//455
f 245//456 370//456 243//456
f 167//167 166//167 322//167
f 322//167 166//167 323//167
f 323//167 166//167 270//167
f 323//167 270//167 324//167
f 324//167 270//167 325//167
f 325//167 270//167 326//167
f 326//167 270//167 371//167
f 326//167 371//167 327//167
f 327//167 371//167 328//167
f 328//167 371//167 329//167
f 329//167 371//167 330//167
f 330//167 371//167 331//167
f 331//167 371//167 332//167
f 332//167 371//167 333//167
f 333//167 371//167 334//167
f 334//167 371//167 335//167
f 335//167 371//167 336//167
f 336//167 371//167 337//167
f 337//167 371//167 338//167
f 338//167 371//167 339//167
f 339//167 371//167 340//167
f 340//167 371//167 341//167
f 341//167 371//167 342//167
f 342//167 371//167 343//167
f 343//167 371//167 372//167
f 343//167 372//167 344//167
f 371//167 272//167 317//167
f 371//167 317//167 316//167
f 202//167 320//167 272//167
f 272//167 320//167 319//167
f 272//167 319//167 318//167
f 201//167 321//167 202//167
f 202//167 321//167 320//167
f 318//167 317//167 272//167
f 316//167 315//167 371//167
f 371//167 315//167 314//167
f 371//167 314//167 313//167
f 313//167 312//167 371//167
f 371//167 312//167 311//167
f 371//167 311//167 310//167
f 310//167 309//167 371//167
f 371//167 309//167 308//167
f 371//167 308//167 307//167
f 307//167 306//167 371//167
f 371//167 306//167 305//167
f 371//167 305//167 304//167
f 304//167 303//167 371//167
f 371//167 303//167 302//167
f 371//167 302//167 301//167
f 301//167 300//167 373//167
f 301//167 373//167 374//167
f 301//167 374//167 371//167
f 371//167 374//167 375//167
f 371//167 375//167 376//167
f 371//167 376//167 377//167
f 299//167 378//167 300//167
f 300//167 378//167 379//167
f 300//167 379//167 380//167
f 380//167 381//167 300//167
f 300//167 381//167 382//167
f 300//167 382//167 383//167
f 383//167 384//167 300//167
f 300//167 384//167 385//167
f 300//167 385//167 386//167
f 386//167 387//167 300//167
f 300//167 387//167 388//167
f 300//167 388//167 389//167
f 389//167 390//167 300//167
f 300//167 390//167 391//167
f 300//167 391//167 392//167
f 392//167 393//167 300//167
f 300//167 393//167 394//167
f 300//167 394//167 395//167
f 395//167 396//167 300//167
f 300//167 396//167 397//167
f 300//167 397//167 398//167
f 398//167 373//167 300//167
f 399//167 400//167 375//167
f 375//167 400//167 401//167
f 375//167 401//167 402//167
f 402//167 403//167 375//167
f 375//167 403//167 404//167
f 375//167 404//167 405//167
f 405//167 406//167 375//167
f 375//167 406//167 407//167
f 375//167 407//167 408//167
f 408//167 409//167 375//167
f 375//167 409//167 410//167
f 375//167 410//167 411//167
f 411//167 412//167 375//167
f 375//167 412//167 413//167
f 375//167 413//167 414//167
f 414//167 415//167 375//167
f 375//167 415//167 376//167
f 377//167 416//167 371//167
f 371//167 416//167 417//167
f 371//167 417//167 372//167
f 299//457 298//457 295//457
f 299//458 295//458 418//458
f 299//458 418//458 378//458
f 378//459 418//459 419//459
f 378//459 419//459 379//459
f 379//460 419//460 420//460
f 379//460 420//460 380//460
f 380//461 420//461 421//461
f 380//461 421//461 381//461
f 381//462 421//462 422//462
f 381//462 422//462 382//462
f 382//463 422//463 423//463
f 382//463 423//463 383//463
f 383//464 423//464 424//464
f 383//464 424//464 384//464
f 384//465 424//465 425//465
f 384//465 425//465 385//465
f 385//466 425//466 426//466
f 385//466 426//466 386//466
f 386//467 426//467 427//467
f 386//467 427//467 387//467
f 387//468 427//468 428//468
f 387//468 428//468 388//468
f 388//469 428//469 429//469
f 388//469 429//469 389//469
f 389//470 429//470 430//470
f 389//470 430//470 390//470
f 390//471 430//471 431//471
f 390//471 431//471 391//471
f 391//472 431//472 432//472
f 391//472 432//472 392//472
f 392//473 432//473 433//473
f 392//473 433//473 393//473
f 393//474 433//474 434//474
f 393//474 434//474 394//474
f 394//475 434//475 435//475
f 394//475 435//475 395//475
f 395//476 435//476 436//476
f 395//476 436//476 396//476
f 396//477 436//477 437//477
f 396//477 437//477 397//477
f 397//478 437//478 438//478
f 397//478 438//478 398//478
f 398//479 438//479 439//479
f 398//479 439//479 373//479
f 373//480 439//480 440//480
f 373//480 440//480 374//480
f 297//481 296//481 298//481
f 298//457 296//457 295//457
f 346//482 345//482 347//482
f 347//483 345//483 344//483
f 347//484 344//484 372//484
f 347//485 372//485 441//485
f 347//486 441//486 348//486
f 372//487 417//487 442//487
f 372//487 442//487 441//487
f 417//488 416//488 443//488
f 417//488 443//488 442//488
f 416//489 377//489 444//489
f 416//489 444//489 443//489
f 377//490 376//490 445//490
f 377//490 445//490 444//490
f 376//491 415//491 446//491
f 376//491 446//491 445//491
f 415//492 414//492 447//492
f 415//492 447//492 446//492
f 414//493 413//493 448//493
f 414//493 448//493 447//493
f 413//494 412//494 449//494
f 413//494 449//494 448//494
f 412//495 411//495 450//495
f 412//495 450//495 449//495
f 411//496 410//496 451//496
f 411//496 451//496 450//496
f 410//497 409//497 452//497
f 410//497 452//497 451//497
f 409//498 408//498 453//498
f 409//498 453//498 452//498
f 408//499 407//499 454//499
f 408//499 454//499 453//499
f 407//500 406//500 455//500
f 407//500 455//500 454//500
f 406//501 405//501 456//501
f 406//501 456//501 455//501
f 405//502 404//502 457//502
f 405//502 457//502 456//502
f 404//503 403//503 458//503
f 404//503 458//503 457//503
f 403//504 402//504 459//504
f 403//504 459//504 458//504
f 402//505 401//505 460//505
f 402//505 460//505 459//505
f 401//506 400//506 461//506
f 401//506 461//506 460//506
f 400//507 399//507 462//507
f 400//507 462//507 461//507
f 399//508 375//508 463//508
f 399//508 463//508 462//508
f 463//350 375//350 374//350
f 463//350 374//350 440//350
f 243//250 370//250 244//250
f 244//250 370//250 369//250
f 244//250 369//250 269//250
f 269//250 369//250 368//250
f 269//250 368//250 367//250
f 367//250 366//250 269//250
f 269//250 366//250 365//250
f 269//250 365//250 464//250
f 464//250 365//250 364//250
f 364//250 363//250 464//250
f 464//250 363//250 362//250
f 464//250 362//250 361//250
f 361//250 360//250 464//250
f 464//250 360//250 359//250
f 464//250 359//250 358//250
f 358//250 357//250 464//250
f 464//250 357//250 356//250
f 464//250 356//250 355//250
f 355//250 354//250 464//250
f 464//250 354//250 353//250
f 464//250 353//250 352//250
f 352//250 351//250 464//250
f 464//250 351//250 350//250
f 464//250 350//250 349//250
f 349//250 348//250 441//250
f 349//250 441//250 464//250
f 464//250 441//250 442//250
f 442//250 443//250 464//250
f 464//250 443//250 444//250
f 464//250 444//250 445//250
f 464//250 445//250 463//250
f 464//250 463//250 440//250
f 445//250 446//250 463//250
f 463//250 446//250 447//250
f 463//250 447//250 448//250
f 448//250 449//250 463//250
f 463//250 449//250 450//250
f 463//250 450//250 451//250
f 451//250 452//250 463//250
f 463//250 452//250 453//250
f 463//250 453//250 454//250
f 454//250 455//250 463//250
f 463//250 455//250 456//250
f 463//250 456//250 457//250
f 457//250 458//250 463//250
f 463//250 458//250 459//250
f 463//250 459//250 460//250
f 460//250 461//250 463//250
f 463//250 461//250 462//250
f 440//250 439//250 294//250
f 440//250 294//250 293//250
f 440//250 293//250 464//250
f 464//250 293//250 292//250
f 439//250 438//250 294//250
f 294//250 438//250 437//250
f 294//250 437//250 436//250
f 436//250 435//250 294//250
f 294//250 435//250 434//250
f 294//250 434//250 433//250
f 433//250 432//250 294//250
f 294//250 432//250 431//250
f 294//250 431//250 430//250
f 430//250 429//250 294//250
f 294//250 429//250 428//250
f 294//250 428//250 427//250
f 427//250 426//250 294//250
f 294//250 426//250 425//250
f 294//250 425//250 424//250
f 424//250 423//250 294//250
f 294//250 423//250 422//250
f 294//250 422//250 421//250
f 421//250 420//250 294//250
f 294//250 420//250 419//250
f 294//250 419//250 418//250
f 418//250 295//250 294//250
f 292//250 291//250 464//250
f 464//250 291//250 290//250
f 464//250 290//250 289//250
f 289//250 288//250 464//250
f 464//250 288//250 287//250
f 464//250 287//250 286//250
f 286//250 285//250 464//250
f 464//250 285//250 284//250
f 464//250 284//250 283//250
f 283//250 282//250 464//250
f 464//250 282//250 281//250
f 464//250 281//250 280//250
f 280//250 279//250 464//250
f 464//250 279//250 278//250
f 464//250 278//250 277//250
f 464//250 277//250 267//250
f 267//250 277//250 276//250
f 276//250 275//250 267//250
f 267//250 275//250 274//250
f 267//250 274//250 209//250
f 209//250 274//250 273//250
f 209//250 273//250 207//250
f 269//509 464//509 268//509
f 464//510 267//510 268//510
f 371//511 270//511 271//511
f 272//512 371//512 271//512
usemtl mat1
f 1//1 2//1 3//1
# Vertices: 464, normals: 512, texture coordinates: 0, faces: 924

